<svg version="1.2" xmlns="http://www.w3.org/2000/svg" viewBox="0 0 946 100" width="946" height="100">
	<title>2</title>
	<style>
		.s0 { fill: #ffffff } 
		.s1 { fill: #3c4043 } 
		.s2 { fill: #4285f4 } 
		.s3 { fill: #34a853 } 
		.s4 { fill: #fabb05 } 
		.s5 { fill: #e94235 } 
		.s6 { fill: #000000 } 
		.s7 { fill: #ff8e09 } 
		.s8 { fill: #002e8d } 
		.s9 { fill: #32a8ff } 
		.s10 { fill: #5756ce } 
		.s11 { fill: #29374a } 
		.s12 { fill: #1434cb } 
		.s13 { fill: #fffffe } 
		.s14 { fill: #ff5f00 } 
		.s15 { fill: #eb001b } 
		.s16 { fill: #f79e1b } 
	</style>
	<g id="GPay">
		<path id="Base_1_" class="s0" d="m913.5 25.2h-46.9c-14.6 0-26.6 12-26.6 26.7 0 14.6 12 26.6 26.6 26.6h46.9c14.7 0 26.7-12 26.7-26.6 0-14.7-12-26.7-26.7-26.7z"/>
		<path id="Outline" fill-rule="evenodd" class="s1" d="m940.2 51.9c0 14.6-12 26.6-26.7 26.6h-46.9c-14.6 0-26.6-12-26.6-26.6 0-14.7 12-26.7 26.6-26.7h46.9c14.7 0 26.7 12 26.7 26.7zm-73.6-24.5c-3.2 0-6.4 0.6-9.5 1.9-2.9 1.2-5.5 3-7.7 5.3-2.3 2.2-4.1 4.8-5.3 7.8-1.3 3-1.9 6.2-1.9 9.5 0 3.2 0.6 6.4 1.9 9.5 1.2 2.9 3 5.5 5.3 7.7 2.2 2.3 4.8 4.1 7.7 5.3 3.1 1.3 6.3 1.9 9.5 1.9h46.9c3.3 0 6.5-0.6 9.5-1.9 3-1.2 5.6-3 7.8-5.3 2.3-2.2 4-4.8 5.3-7.7 1.3-3.1 1.9-6.3 1.9-9.5 0-3.3-0.6-6.5-1.9-9.5-1.3-3-3-5.6-5.3-7.8-2.2-2.3-4.8-4.1-7.8-5.3-3-1.3-6.2-1.9-9.5-1.9z"/>
		<g id="Google_Pay_Lockup_1_">
			<g id="Pay_Typeface_3_">
				<path id="Letter_p_3_" fill-rule="evenodd" class="s1" d="m887.8 61.8h-2.6v-19.9h6.8q2.6 0 4.4 1.7 1.8 1.7 1.8 4.2 0 2.6-1.8 4.2-1.8 1.7-4.4 1.7h-4.2zm0-10.5h4.2q1.6 0 2.6-1 1-1 1-2.4 0-1.4-1-2.5-1-1-2.6-1h-4.2z"/>
				<path id="Letter_a_3_" fill-rule="evenodd" class="s1" d="m904.9 47.7q2.8 0 4.5 1.6 1.6 1.5 1.6 4.1v8.4h-2.4v-1.9h-0.1q-1.6 2.4-4.3 2.3-2.2 0.1-3.7-1.3-1.5-1.3-1.5-3.3 0-2.1 1.6-3.4 1.6-1.2 4.2-1.2 2.3 0 3.8 0.8v-0.6q0-1.3-1.1-2.2-1-1-2.5-1-2.1 0-3.3 1.8l-2.3-1.4q1.9-2.7 5.5-2.7zm-3.3 9.9q0 1 0.9 1.7 0.8 0.7 1.9 0.7 1.7 0 2.9-1.2 1.3-1.2 1.3-2.9-1.2-0.9-3.4-0.9-1.5 0-2.5 0.7-1.1 0.8-1.1 1.9z"/>
				<path id="Letter_y_3_" class="s1" d="m924.9 48.2l-8.5 19.6h-2.6l3.1-6.9-5.6-12.7h2.8l4 9.8h0.1l3.9-9.8z"/>
			</g>
			<g id="Google_Mark_1_">
				<path id="Blue_500" class="s2" d="m877.6 52.1q0-1.2-0.2-2.4h-10.7v4.4h6.1c-0.2 1.5-1 2.7-2.3 3.6v2.8h3.7c2.2-2 3.4-4.9 3.4-8.4z"/>
				<path id="Green_500_1_" class="s3" d="m870.5 57.7c-1 0.7-2.3 1.1-3.8 1.1-3 0-5.5-2.1-6.4-4.8h-3.8v3c1.8 3.7 5.7 6.3 10.2 6.3 3 0 5.6-1 7.5-2.8z"/>
				<path id="Yellow_500_1_" class="s4" d="m859.9 51.9q0-1.2 0.4-2.2v-3h-3.8c-0.8 1.6-1.2 3.3-1.2 5.2q0 2.7 1.2 5.1l3.8-3q-0.4-1-0.4-2.1z"/>
				<path id="Red_500" class="s5" d="m866.7 45c1.6 0 3.2 0.5 4.3 1.7l3.3-3.3c-2-1.8-4.6-2.9-7.6-2.9-4.5 0-8.4 2.5-10.2 6.2l3.8 3c0.9-2.7 3.4-4.7 6.4-4.7z"/>
			</g>
		</g>
	</g>
	<g id="bePaid">
		<path fill-rule="evenodd" class="s6" d="m740.1 60.6c-6 0-11.1-5.3-11.1-12.3l9-9.7c7.7-0.5 13 5.1 13 11.1q0 1.4-0.4 2.8h-15.5c1 1.7 2.8 2.8 5 2.8h8v5.3zm-5-13.6h9.9c-1-1.8-2.8-2.9-4.9-2.9-2.2 0-4 1.1-5 2.9z"/>
		<path fill-rule="evenodd" class="s6" d="m712.5 40.9c0.9-0.8 3.1-1.7 5.3-1.7 6 0 10.9 4.9 10.9 10.9 0 6-4.9 10.9-10.9 10.9-5.9 0-10.8-4.9-10.8-10.9v-15.7h5.5zm10.9 9.2c0-3.1-2.5-5.6-5.6-5.6-3.1 0-5.6 2.5-5.6 5.6 0 3.1 2.5 5.6 5.6 5.6 3.1 0 5.6-2.5 5.6-5.6z"/>
		<path fill-rule="evenodd" class="s6" d="m830.3 34.4v18.9l-9 7.6c-8.1 0-12.7-4.8-12.7-10.8 0-6 4.9-10.9 10.9-10.9 2.3 0 4.4 0.9 5.4 1.6v-6.4zm-5.2 15.7c0-3.1-2.5-5.6-5.6-5.6-3.1 0-5.6 2.5-5.6 5.6 0 3.1 2.5 5.6 5.6 5.6 3.1 0 5.6-2.5 5.6-5.6z"/>
		<path fill-rule="evenodd" class="s6" d="m759.4 65.4h-5.4v-15.7c0-6 4.8-10.8 10.8-10.8 6 0 10.9 4.8 10.9 10.8 0 6-4.9 10.9-10.9 10.9-2.2 0-4.4-0.9-5.4-1.7zm11-15.6c0-3.1-2.5-5.6-5.6-5.6-3.1 0-5.6 2.5-5.6 5.6 0 3.1 2.5 5.6 5.6 5.6 3.1 0 5.6-2.5 5.6-5.6z"/>
		<path fill-rule="evenodd" class="s6" d="m792.5 55.4l-5.4 5.4c-6.1 0-11-4.9-11-11 0-6 4.9-11 11-11 6.1 0 11 5 11 11v10.8h-5.6zm0.3-5.5c0-3.1-2.6-5.7-5.7-5.7-3.1 0-5.7 2.6-5.7 5.7 0 3.1 2.6 5.7 5.7 5.7 3.1 0 5.7-2.6 5.7-5.7z"/>
		<path class="s6" d="m800.7 44.2h5.4v16.4h-5.4z"/>
		<path class="s7" d="m800.7 34.4h5.4v5.4h-5.4z"/>
	</g>
	<g id="Cart">
		<g id="Belcart">
			<g>
				<path fill-rule="evenodd" class="s8" d="m460.7 79.7c0 2.5-1.8 4.2-4.3 4.2-2.4 0-4.4-1.5-4.4-4.6v-1.5c0-3 1.4-5.1 4.1-5.6l3.9-0.5v1.6l-3.6 0.4c-1.6 0.3-2.5 1.3-2.6 3.5 0.6-1.2 1.8-1.6 2.9-1.6 2.3 0 4 1.7 4 4.1zm-1.8 0c0-1.5-1-2.5-2.5-2.5-1.5 0-2.6 1-2.6 2.5 0 1.5 1.1 2.6 2.6 2.6 1.5 0 2.5-1.1 2.5-2.6z"/>
				<path fill-rule="evenodd" class="s8" d="m463.6 80.2c0.1 1.3 1.2 2.2 2.6 2.2 0.9 0 1.6-0.4 2-1h1.8c-0.5 1.4-2 2.5-3.8 2.5-2.6 0-4.4-1.7-4.4-4.3 0-2.5 1.7-4.3 4.2-4.3 2.3 0 4.1 1.4 4.3 4.2q0 0.3 0 0.7zm4.8-1.4c-0.1-1.2-1.1-2-2.4-2-1.3 0-2.3 0.8-2.4 2z"/>
				<path class="s8" d="m470.9 82.2c0.6-0.1 1.3-0.4 1.3-1.7v-5.1h6.5v8.4h-1.8v-6.7h-2.9v3.4c0 2.3-1.4 3.3-3.1 3.3z"/>
				<path class="s8" d="m483.7 79.3l4-3.9h-2.1l-2.2 2.2-1.3 1.2v-3.4h-1.7-0.1v8.4h0.1 1.7v-3.9l1.3 1.3 2.2 2.6h2.1z"/>
				<path fill-rule="evenodd" class="s8" d="m496.6 75.4v8.4h-1.9v-1.3c-0.7 0.9-1.9 1.4-3 1.4q-0.1 0-0.1 0c-1.2 0-2.2-0.4-2.9-1.1q0-0.1-0.1-0.1 0-0.1 0-0.1c-0.7-0.7-1.1-1.8-1.1-3 0-1.2 0.4-2.2 1.1-3q0 0 0-0.1 0.1 0 0.1-0.1c0.7-0.7 1.7-1.1 2.9-1.1q0 0 0.1 0c1.1 0 2.3 0.5 3 1.4l0.3-1.3zm-1.9 4.2c0-1.5-1.1-2.7-2.7-2.7-1.5 0-2.7 1.1-2.7 2.7 0 1.6 1.2 2.7 2.7 2.7 1.6 0 2.7-1.2 2.7-2.7z"/>
				<path fill-rule="evenodd" class="s8" d="m499.8 75.4l0.2 1.3c0.7-0.9 2-1.4 3.1-1.4q0 0 0.1 0c1.2 0 2.1 0.4 2.8 1.1q0.1 0.1 0.1 0.1 0.1 0.1 0.1 0.1c0.7 0.8 1 1.8 1 3 0 1.2-0.3 2.3-1 3q0 0-0.1 0.1 0 0-0.1 0.1c-0.7 0.7-1.6 1.1-2.8 1.1q-0.1 0-0.1 0c-1.1 0-2.4-0.5-3.1-1.4v5h-1.8v-12.1zm2.9 6.9c1.5 0 2.7-1.1 2.7-2.7 0-1.6-1.2-2.7-2.7-2.7-1.6 0-2.7 1.2-2.7 2.7 0 1.5 1.1 2.7 2.7 2.7z"/>
				<path class="s8" d="m521 78.6v5.2h-1.8v-4.8c0-1.5-0.8-2.1-1.8-2.1-1.1 0-1.9 0.7-1.9 2.1v4.8h-1.8v-4.8c0-1.5-0.8-2.1-1.8-2.1-1.1 0-1.9 0.7-1.9 2.1v4.8h-1.8v-8.4h1.6l0.2 1.2c0.5-0.8 1.3-1.3 2.5-1.3 1.1 0 2 0.4 2.5 1.3 0.6-0.8 1.5-1.3 2.8-1.3 1.9 0 3.2 1.2 3.2 3.3z"/>
			</g>
			<g>
				<path class="s9" d="m483.7 54.1l-8.8 8.6c-0.6 0.6-0.6 1.3-0.3 1.8 0.2 0.5 0.7 1 1.5 1l15.3 0.1c1.2 0 2.2-1 2.2-2.1q0-0.1 0-0.2c0-3.4-1.3-6.7-3.7-9.1-1.7-1.7-4.5-1.8-6.2-0.1z"/>
				<path class="s9" d="m473.6 47.6l-12.2-0.1c-0.8 0-1.3 0.5-1.5 1-0.2 0.5-0.3 1.3 0.3 1.8l10.8 10.9c0.9 0.9 2.2 0.9 3.1 0.1q0.1-0.1 0.1-0.2c2.4-2.3 3.8-5.6 3.8-9 0.1-2.4-1.9-4.4-4.4-4.5z"/>
				<path class="s9" d="m461.8 45.9q0.1 0 0.2 0c3.4 0 6.7-1.3 9.1-3.7 1.7-1.7 1.8-4.5 0.1-6.3l-8.6-8.7c-0.6-0.6-1.3-0.6-1.8-0.4-0.5 0.2-1 0.8-1 1.6l-0.1 15.3c0 1.2 1 2.2 2.1 2.2z"/>
				<path class="s9" d="m464.2 26.5c2.3 2.4 5.6 3.8 9 3.8 2.4 0.1 4.4-1.9 4.5-4.4l0.1-12.2c0-0.8-0.5-1.3-1-1.5-0.5-0.2-1.3-0.3-1.8 0.3l-10.9 10.8c-0.9 0.9-0.9 2.2-0.1 3.1q0.1 0.1 0.2 0.1z"/>
				<path class="s9" d="m489.3 23.4l8.8-8.5c0.6-0.6 0.5-1.3 0.3-1.8-0.2-0.5-0.7-1-1.5-1.1h-15.3c-1.2 0-2.2 1-2.2 2.1q0 0.1 0 0.2c0 3.4 1.3 6.7 3.7 9.1 1.7 1.7 4.5 1.8 6.2 0z"/>
				<path class="s9" d="m499.4 30l12.2 0.1c0.8 0 1.3-0.5 1.5-1 0.2-0.5 0.3-1.3-0.3-1.9l-10.8-10.8c-0.9-0.9-2.2-0.9-3.1-0.1q-0.1 0.1-0.1 0.2c-2.4 2.3-3.8 5.6-3.8 9-0.1 2.4 1.9 4.4 4.4 4.5z"/>
				<path class="s9" d="m511.2 31.7q-0.1 0-0.2 0c-3.4 0-6.7 1.3-9.1 3.7-1.7 1.7-1.8 4.5-0.1 6.2l8.6 8.8c0.6 0.6 1.3 0.5 1.8 0.3 0.5-0.2 1-0.7 1-1.5l0.1-15.3c0-1.2-1-2.2-2.1-2.2z"/>
				<path class="s9" d="m508.8 51.1c-2.3-2.4-5.6-3.8-9-3.8-2.4-0.1-4.4 1.9-4.5 4.4l-0.1 12.2c0 0.8 0.5 1.3 1 1.5 0.5 0.2 1.3 0.2 1.8-0.3l10.9-10.9c0.9-0.8 0.9-2.2 0.1-3q-0.1-0.1-0.2-0.1z"/>
			</g>
			<g id="Belcart_int_pass">
				<g>
					<g>
						<g>
							<g>
								<path class="s10" d="m574.7 66.2c-1.8-1.8-4.8-1.9-6.6-0.1l-9.2 9c-0.6 0.6-0.6 1.4-0.4 1.9 0.2 0.5 0.8 1 1.6 1.1h16.1c1.2 0 2.3-1 2.3-2.2q0-0.1 0-0.2c0-3.6-1.4-7-3.8-9.5z"/>
							</g>
							<g>
								<path class="s10" d="m562.2 64c0-2.6-2.1-4.7-4.6-4.7l-12.8-0.1c-0.9 0-1.4 0.5-1.6 1-0.2 0.5-0.3 1.3 0.3 1.9l11.4 11.4c0.8 0.9 2.3 0.9 3.2 0q0 0 0.1-0.1c2.5-2.4 4-5.9 4-9.4z"/>
							</g>
							<g>
								<path class="s10" d="m554.9 53.7c1.9-1.8 1.9-4.8 0.1-6.6l-9-9.2c-0.6-0.6-1.3-0.6-1.9-0.4-0.5 0.2-1 0.8-1 1.6l-0.1 16.1c0 1.3 1 2.3 2.2 2.3q0.1 0 0.2 0c3.6 0 7-1.4 9.5-3.8z"/>
							</g>
							<g>
								<path class="s10" d="m567.4 33.9c1.8 1.9 4.8 1.9 6.6 0.1l9.2-9c0.6-0.6 0.6-1.3 0.4-1.9-0.3-0.5-0.8-1-1.6-1l-16.1-0.1c-1.3 0-2.3 1-2.3 2.2q0 0.1 0 0.2c0 3.6 1.4 7 3.8 9.5z"/>
							</g>
							<g>
								<path class="s10" d="m579.9 36.1c0 2.6 2.1 4.7 4.6 4.7l12.8 0.1c0.9 0 1.4-0.5 1.6-1 0.2-0.5 0.3-1.3-0.3-1.9l-11.4-11.4c-0.8-0.9-2.3-0.9-3.2-0.1q0 0.1-0.1 0.2c-2.5 2.5-3.9 5.9-4 9.4z"/>
							</g>
							<g>
								<path class="s10" d="m587.2 46.5c-1.8 1.8-1.9 4.7-0.1 6.5l9 9.2c0.6 0.6 1.4 0.6 1.9 0.4 0.5-0.2 1-0.8 1.1-1.6v-16.1c0-1.2-1-2.3-2.2-2.3q-0.1 0-0.2 0c-3.6 0-7 1.4-9.5 3.9z"/>
							</g>
							<g>
								<path class="s10" d="m585 58.9c-2.6 0-4.7 2.1-4.7 4.6l-0.1 12.8c0 0.9 0.5 1.4 1 1.6 0.5 0.2 1.3 0.3 1.9-0.3l11.4-11.4c0.9-0.8 0.9-2.3 0-3.2q0 0-0.1-0.1c-2.5-2.5-5.9-3.9-9.4-4z"/>
							</g>
						</g>
					</g>
					<path fill-rule="evenodd" class="s10" d="m562.7 33.5v2.4c0 2-1.7 3.7-3.7 3.7h-1.2c-0.3 0-0.5-0.2-0.5-0.4l-0.6-3.7q0-0.1 0.2-0.2c0.4-0.3 0.7-0.8 0.7-1.4 0-0.9-0.8-1.7-1.7-1.5-0.8 0-1.3 0.6-1.4 1.3-0.1 0.7 0.2 1.3 0.7 1.6q0.2 0.1 0.2 0.2l-0.6 3.7c0 0.2-0.2 0.4-0.5 0.4h-1.2c-2 0-3.7-1.7-3.7-3.7v-2.4c0-1.6 1-2.9 2.4-3.4v-1.1c0-2.3 1.9-4.3 4.3-4.2 2.4 0 4.2 2 4.2 4.3v1c1.4 0.5 2.4 1.8 2.4 3.4zm-3.3-4.4c0-1.8-1.5-3.4-3.3-3.4-1.8 0-3.3 1.5-3.3 3.3v0.8q0.1 0 0.3 0c0.1 0 6.2 0 6.3 0z"/>
				</g>
				<g>
					<g>
						<path fill-rule="evenodd" class="s11" d="m624.1 36c0 2.5-1.9 4.3-4.5 4.3-2.5 0-4.5-1.6-4.5-4.8v-1.6c0-3 1.5-5.3 4.2-5.8l4.1-0.5v1.6l-3.7 0.5c-1.7 0.3-2.7 1.4-2.8 3.6 0.7-1.3 1.9-1.6 3-1.6 2.5 0 4.2 1.7 4.2 4.3zm-1.8-0.1c0-1.5-1.1-2.6-2.7-2.6-1.5 0-2.6 1.1-2.6 2.6 0 1.6 1.1 2.7 2.6 2.7 1.6 0 2.7-1.1 2.7-2.7z"/>
						<path fill-rule="evenodd" class="s11" d="m627.1 36.5c0.2 1.3 1.3 2.2 2.7 2.2 1 0 1.7-0.4 2.2-1h1.8c-0.5 1.5-2.1 2.6-4 2.6-2.6 0-4.6-1.8-4.6-4.5 0-2.5 1.9-4.5 4.4-4.5 2.5 0 4.3 1.6 4.5 4.4q0 0.3 0 0.8zm4.9-1.5c0-1.2-1-2.1-2.4-2.1-1.4 0-2.4 0.9-2.5 2.1z"/>
						<path class="s11" d="m634.7 38.5c0.7 0 1.4-0.4 1.4-1.8v-5.2h6.8v8.7h-1.9v-7h-3.1v3.6c0 2.4-1.4 3.5-3.2 3.4z"/>
						<path class="s11" d="m648.1 35.5l4.1-4h-2.2l-2.3 2.2-1.3 1.3v-3.5h-1.8-0.1v8.7h0.1 1.8v-4.1l1.3 1.4 2.3 2.7h2.2z"/>
						<path fill-rule="evenodd" class="s11" d="m661.4 31.5v8.7h-1.9v-1.3c-0.7 0.9-2 1.4-3.2 1.4-1.3 0-2.3-0.4-3.1-1.2q0 0-0.1-0.1c-0.7-0.8-1.1-1.9-1.1-3.2 0-1.2 0.4-2.3 1.1-3.1q0 0 0-0.1 0.1 0 0.1-0.1c0.8-0.7 1.8-1.2 3.1-1.2 1.2 0 2.5 0.6 3.2 1.5l0.3-1.3zm-2 4.3c0-1.5-1.1-2.7-2.7-2.7-1.7 0-2.9 1.1-2.9 2.7 0 1.6 1.2 2.8 2.9 2.8 1.6 0 2.7-1.2 2.7-2.8z"/>
						<path fill-rule="evenodd" class="s11" d="m664.8 31.5l0.2 1.3c0.7-0.9 2-1.5 3.2-1.5q0 0 0.1 0c1.2 0 2.3 0.5 3 1.2q0 0.1 0.1 0.1 0 0.1 0 0.1c0.8 0.8 1.1 1.9 1.1 3.1 0 1.3-0.4 2.4-1.1 3.2q-0.1 0.1-0.1 0.1-1.2 1.2-3 1.2-0.1 0-0.1 0c-1.2 0-2.5-0.5-3.2-1.4v5.2h-1.9v-12.6zm3 7.1c1.6 0 2.8-1.2 2.8-2.8 0-1.6-1.2-2.7-2.8-2.7-1.6 0-2.8 1.2-2.8 2.7 0 1.6 1.2 2.8 2.8 2.8z"/>
						<path class="s11" d="m686.8 34.8v5.4h-1.9v-5c0-1.5-0.8-2.2-1.9-2.2-1.1 0-1.9 0.7-1.9 2.2v5h-1.9v-5c0-1.5-0.8-2.2-1.8-2.2-1.2 0-2 0.7-2 2.2v5h-1.9v-8.7h1.7l0.2 1.3c0.5-0.9 1.3-1.5 2.6-1.5 1.2 0 2.1 0.5 2.6 1.5 0.6-0.9 1.6-1.5 3-1.5 1.9 0 3.2 1.3 3.2 3.5z"/>
					</g>
					<g>
						<path class="s11" d="m621.6 46.8h1.6v8.5h-1.7v-5.7l-4.6 5.7h-1.6v-8.5h1.7v5.7z"/>
						<path class="s11" d="m630.7 46.8h1.7v8.5h-1.7v-3.1h-4.2v3.1h-1.7v-8.5h1.7v3.6h4.2z"/>
						<path class="s11" d="m683.5 55.2v-7h-2.8v-1.5h7.3v1.5h-2.7v7z"/>
						<path fill-rule="evenodd" class="s11" d="m643.3 51.6c0.1 1.3 1.2 2.3 2.6 2.3 1 0 1.7-0.5 2.1-1h1.8c-0.5 1.4-2 2.5-3.9 2.5-2.6 0-4.5-1.7-4.5-4.4 0-2.5 1.8-4.4 4.3-4.4 2.4 0 4.1 1.5 4.3 4.3q0 0.3 0 0.7zm4.9-1.4c0-1.2-1-2.1-2.4-2.1-1.3 0-2.4 0.9-2.5 2.1z"/>
						<path fill-rule="evenodd" class="s11" d="m673.4 51.6c0.1 1.3 1.2 2.3 2.6 2.3 1 0 1.7-0.5 2.1-1h1.8c-0.5 1.4-2 2.5-3.9 2.5-2.6 0-4.5-1.7-4.5-4.4 0-2.5 1.8-4.4 4.4-4.4 2.3 0 4.1 1.5 4.3 4.3q0 0.3 0 0.7zm4.8-1.4c0-1.2-1-2.1-2.4-2.1-1.3 0-2.3 0.9-2.4 2.1z"/>
						<path class="s11" d="m668.4 46.8h1.7v8.5h-1.7v-3.1h-4.3v3.1h-1.6v-8.5h1.6v3.6h4.3z"/>
						<path class="s11" d="m636.4 55.2v-7h-2.7v-1.5h7.3v1.5h-2.7v7z"/>
						<path fill-rule="evenodd" class="s11" d="m653.3 46.7l0.2 1.2c0.8-0.9 2-1.4 3.2-1.4q0 0 0.1 0c1.2 0 2.2 0.4 2.9 1.2q0 0 0.1 0.1 0 0 0.1 0c0.6 0.8 1 1.9 1 3.1 0 1.2-0.4 2.3-1 3.1q-0.1 0-0.1 0.1-0.1 0-0.1 0.1c-0.7 0.7-1.7 1.1-2.9 1.1q-0.1 0-0.1 0c-1.2 0-2.4-0.5-3.2-1.4v5.1h-1.8v-12.3zm2.9 6.9c1.7 0 2.8-1.1 2.8-2.7 0-1.6-1.2-2.7-2.8-2.7-1.6 0-2.7 1.2-2.7 2.7 0 1.6 1.1 2.7 2.7 2.7z"/>
						<g>
							<path class="s11" d="m623.1 62v8.5h-1.9v-7h-4v7h-1.9v-8.5z"/>
							<path fill-rule="evenodd" class="s11" d="m669.5 64.6c2 0 3.3 1.1 3.3 3 0 1.8-1.4 2.9-3.3 2.9h-3.5v-8.5h1.6v2.6zm-0.2 4.3c1.1 0 1.9-0.5 1.9-1.3 0-0.9-0.8-1.4-1.9-1.4h-1.6v2.7z"/>
							<path fill-rule="evenodd" class="s11" d="m632.1 62h1.7v8.5h-1.9v-1.3c-0.7 0.9-2 1.4-3.1 1.4q-0.1 0-0.1 0c-1.2 0-2.2-0.4-2.9-1.1q-0.1-0.1-0.1-0.1 0-0.1-0.1-0.1c-0.7-0.8-1-1.8-1-3v-0.1c0-1.2 0.3-2.2 1-3q0.1-0.1 0.1-0.1 0 0 0.1-0.1c0.7-0.7 1.7-1.2 2.9-1.2q0 0 0.1 0c1.1 0 2.4 0.6 3.1 1.5zm-0.2 4.3c0-1.6-1.1-2.8-2.7-2.8-1.6 0-2.8 1.2-2.8 2.8 0 1.5 1.2 2.7 2.8 2.7 1.6 0 2.7-1.2 2.7-2.7z"/>
							<path fill-rule="evenodd" class="s11" d="m637.4 61.9l0.2 1.3c0.7-1 2-1.5 3.1-1.5q0.1 0 0.1 0c1.2 0 2.2 0.5 2.9 1.2q0.1 0 0.1 0.1 0.1 0 0.1 0.1c0.7 0.7 1.1 1.8 1.1 3v0.1c0 1.2-0.4 2.2-1.1 3q0 0.1-0.1 0.1 0 0-0.1 0.1c-0.7 0.7-1.7 1.2-2.9 1.2q0 0-0.1 0c-1.1 0-2.4-0.6-3.1-1.5v5.1h-1.9v-12.3zm3 7c1.6 0 2.7-1.2 2.7-2.8 0-1.5-1.1-2.7-2.7-2.7-1.6 0-2.8 1.2-2.8 2.7 0 1.6 1.2 2.8 2.8 2.8z"/>
							<path class="s11" d="m656.2 68.9c0.7 0 1.4-0.4 1.4-1.8v-5.1h6.7v8.6h-1.9v-6.9h-3v3.5c0 2.4-1.4 3.5-3.2 3.4z"/>
							<path fill-rule="evenodd" class="s11" d="m655.2 66.2c0 2.6-1.9 4.4-4.5 4.4-2.7 0-4.6-1.8-4.6-4.4 0-2.5 1.9-4.4 4.6-4.4 2.6 0 4.5 1.9 4.5 4.4zm-1.9 0c0-1.6-1.1-2.7-2.6-2.7-1.6 0-2.7 1.2-2.7 2.7 0 1.6 1.1 2.7 2.7 2.7 1.5 0 2.6-1.1 2.6-2.7z"/>
						</g>
					</g>
				</g>
			</g>
		</g>
		<g id="Visa">
			<path class="s12" d="m50.6 31.2l-15.7 37.5h-10.2l-7.7-29.9c-0.1-0.7-0.3-1.4-0.7-2-0.4-0.6-1-1-1.6-1.3-3-1.5-6.2-2.5-9.5-3.2l0.2-1.1h16.5c1.1 0 2.1 0.4 2.9 1.1 0.8 0.7 1.4 1.7 1.5 2.7l4.1 21.7 10.1-25.5z"/>
			<path class="s12" d="m64.5 31.2l-8 37.4h-9.7l8-37.4z"/>
			<path class="s12" d="m77.2 41.6c-0.1 4.5 13.5 5 13.5 14.9 0 7.7-6.6 12.8-16.8 12.8-3.7 0-7.4-0.7-10.8-2l1.8-8.2c3 1.6 6.4 2.4 9.9 2.3 2.8 0 5.8-1.1 5.8-3.6 0.1-1.7-1.4-2.9-5-4.7-3.7-1.8-8.5-4.8-8.5-10.2 0.1-7.3 6.8-12.4 16.4-12.4 3.1 0 6.1 0.6 9 1.7l-1.7 7.9c-3-1.4-6.3-2-9.5-1.7-2.9 0.4-4.1 1.8-4.1 3.2z"/>
			<path fill-rule="evenodd" class="s12" d="m117.1 31.2l7.9 37.5h-8.9l-1.2-5.6h-12.4l-2 5.6h-10.2l14.4-34.8c0.4-0.8 0.9-1.5 1.7-2 0.7-0.4 1.6-0.7 2.5-0.7zm-3.9 24.2l-2.9-14.1-5.1 14.1z"/>
			<path fill-rule="evenodd" class="s12" d="m147.9 45.3h68.6v34.3h-68.6z"/>
			<path fill-rule="evenodd" class="s12" d="m180.7 20.6l-3.3 15.4h-4l3.3-15.4zm20.7 13.1h-5.1l-0.8 2.3h-4.2l6-14.3c0.3-0.6 0.9-1.1 1.7-1.1h3.4l3.2 15.4h-3.7zm-0.6-3.1l-1.3-5.8-2.1 5.8zm-16.1 5.7c-1.8-0.1-3.5-0.4-4.5-0.9l0.8-3.3c0.9 0.4 2 1 4 0.9 1.2 0 2.4-0.4 2.4-1.5 0-0.6-0.5-1.1-2-1.9-1.6-0.7-3.6-2-3.5-4.2 0-3 2.8-5.1 6.7-5.1 1.5 0 2.8 0.4 3.7 0.7l-0.7 3.3c-1.8-0.8-3.3-0.8-3.9-0.7-1.2 0.1-1.7 0.7-1.7 1.3 0 1.8 5.6 2 5.6 6.1 0 3.2-2.8 5.3-6.9 5.3zm-9.6-15.7l-6.5 15.4h-4.2l-3.1-12.3c-0.2-0.7-0.4-1-1-1.3-1-0.6-2.5-1-3.9-1.3l0.1-0.5h6.7c0.9 0 1.7 0.6 1.9 1.6l1.7 8.9 4.1-10.5z"/>
			<path fill-rule="evenodd" class="s13" d="m163.9 64.3c0.4 0.3 1.1 0.5 1.8 0.5 0.9 0 1.5-0.4 1.5-1.1 0-0.5-0.4-0.9-1.4-1.2-1.3-0.5-2.1-1.2-2.1-2.3 0-1.3 1-2.2 2.7-2.2 0.9 0 1.5 0.2 1.9 0.3l-0.4 1.2c-0.2-0.1-0.8-0.4-1.5-0.4-0.9 0-1.3 0.5-1.3 1 0 0.6 0.5 0.8 1.5 1.2 1.3 0.6 2 1.2 2 2.3 0 1.3-0.9 2.4-2.9 2.4-0.9 0-1.7-0.3-2.2-0.5z"/>
			<path fill-rule="evenodd" class="s13" d="m174.1 62.4h-2.9v2.3h3.3v1.2h-4.7v-7.8h4.5v1.1h-3.1v2.1h2.9z"/>
			<path fill-rule="evenodd" class="s13" d="m181.2 65.6c-0.4 0.2-1.1 0.4-2.1 0.4-2.4 0-3.9-1.6-3.9-3.9 0-2.6 1.8-4.1 4.1-4.1 1 0 1.6 0.2 1.9 0.3l-0.3 1.1c-0.3-0.1-0.9-0.3-1.5-0.3-1.6 0-2.7 1-2.7 2.9 0 1.7 1 2.8 2.7 2.8 0.5 0 1.2-0.1 1.5-0.3z"/>
			<path fill-rule="evenodd" class="s13" d="m183.7 58.1v4.5c0 1.5 0.6 2.2 1.6 2.2 1 0 1.6-0.7 1.6-2.2v-4.5h1.4v4.4c0 2.4-1.2 3.5-3.1 3.5-1.8 0-3-1-3-3.5v-4.4z"/>
			<path fill-rule="evenodd" class="s13" d="m189.8 58.2c0.6-0.1 1.4-0.2 2.2-0.2 1.1 0 1.8 0.2 2.4 0.6 0.4 0.4 0.6 0.9 0.6 1.6 0 1-0.6 1.7-1.4 2 0.6 0.2 0.9 0.7 1.1 1.5 0.3 1 0.5 1.9 0.6 2.2h-1.4c-0.2-0.3-0.3-0.9-0.6-1.9-0.2-1-0.5-1.3-1.3-1.3h-0.8v3.2h-1.4zm1.4 3.4h0.9c0.9 0 1.5-0.5 1.5-1.3 0-0.8-0.6-1.2-1.5-1.2q-0.7 0-0.9 0z"/>
			<path fill-rule="evenodd" class="s13" d="m200.6 62.4h-2.9v2.3h3.3v1.2h-4.7v-7.8h4.5v1.1h-3.1v2.1h2.9z"/>
		</g>
		<g id="Mastercard">
			<path class="s14" d="m296.8 74.3h-26.4v-47.3h26.4z"/>
			<path class="s15" d="m276.2 62.8c2 4.1 4.9 7.7 8.4 10.5-4.4 3.5-9.7 5.7-15.4 6.3-5.6 0.6-11.3-0.4-16.3-2.9-5.1-2.5-9.4-6.3-12.4-11.1-3-4.8-4.6-10.3-4.6-16 0-5.6 1.6-11.1 4.6-15.9 3-4.8 7.3-8.7 12.4-11.1 5-2.5 10.7-3.5 16.3-2.9 5.7 0.6 11 2.8 15.4 6.3-3.5 2.8-6.4 6.4-8.4 10.5-2 4.1-3.1 8.6-3.1 13.1 0 4.6 1.1 9.1 3.1 13.2z"/>
			<path class="s16" d="m332.4 50.6c0 5.7-1.6 11.2-4.6 16-3 4.8-7.3 8.6-12.4 11.1-5.1 2.5-10.8 3.5-16.4 2.9-5.6-0.6-10.9-2.8-15.4-6.3 3.6-2.8 6.5-6.4 8.5-10.5 2-4.1 3-8.6 3-13.2 0-4.5-1-9-3-13.1-2-4.1-4.9-7.7-8.5-10.5 4.5-3.5 9.8-5.7 15.4-6.3 5.6-0.6 11.3 0.4 16.4 2.9 5.1 2.4 9.4 6.3 12.4 11.1 3 4.8 4.6 10.3 4.6 15.9z"/>
			<path fill-rule="evenodd" class="s6" d="m355.2 80.2h-1.3v-15h1.3zm9.5-15q1.7 0 3.4 0.5 1.4 0.5 2.5 1.5c0.7 0.7 1.3 1.5 1.6 2.4 0.8 2 0.8 4.2 0 6.2-0.3 0.9-0.9 1.7-1.6 2.4-0.7 0.7-1.6 1.2-2.5 1.5q-1.7 0.6-3.4 0.5h-5.5v-15zm-4.1 1.3v12.5h4.1q1.5 0 2.9-0.5 1.2-0.4 2.1-1.2 0.9-0.9 1.3-2c0.6-1.7 0.6-3.5 0-5.2q-0.4-1.1-1.3-1.9-0.9-0.9-2.1-1.3-1.4-0.5-2.9-0.4zm27.4-1.4q1 0 1.9 0.2 0.9 0.2 1.7 0.6 0.7 0.4 1.4 1 0.6 0.5 1.1 1.2l-1.1 0.8q-0.4-0.6-0.9-1.1-0.6-0.5-1.2-0.8-0.6-0.3-1.4-0.5-0.7-0.2-1.5-0.2-1.3 0-2.5 0.5-1.1 0.4-2 1.3-0.8 0.9-1.3 2c-0.6 1.7-0.6 3.6 0 5.2q0.5 1.2 1.3 2.1 0.9 0.8 2 1.3 1.2 0.5 2.5 0.4 0.8 0 1.5-0.1 0.7-0.2 1.4-0.5 0.6-0.4 1.2-0.8 0.5-0.5 0.9-1.1l1 0.8q-0.4 0.7-1.1 1.2-0.6 0.6-1.4 1-0.8 0.4-1.6 0.6c-1.7 0.4-3.4 0.2-4.9-0.4-0.9-0.3-1.7-0.9-2.4-1.5q-1.1-1.1-1.7-2.5c-0.7-2-0.7-4.2 0-6.2q0.6-1.3 1.7-2.4c0.7-0.7 1.5-1.2 2.4-1.6 1-0.4 2-0.6 3-0.5zm10.1 6.8q0.3-0.5 0.7-0.9 0.4-0.3 0.9-0.6 0.4-0.2 0.9-0.3 0.5-0.1 1.1-0.1 0.8 0 1.7 0.3 0.7 0.2 1.3 0.8 0.6 0.5 0.9 1.3 0.3 0.8 0.3 1.6v6.2h-1.2v-5.8q0-0.7-0.2-1.3-0.2-0.6-0.7-1.1-0.4-0.4-1-0.6-0.7-0.3-1.4-0.3-0.6 0-1.3 0.3-0.6 0.2-1 0.7-0.5 0.4-0.8 1-0.2 0.7-0.2 1.4v5.7h-1.2v-15.4h1.2zm15-1.9q1 0 1.9 0.4 0.8 0.3 1.5 1 0.6 0.7 1 1.7 0.3 1 0.3 2 0 0.2 0 0.3 0 0.1 0 0.2h-8.4q0 0.9 0.4 1.6 0.3 0.7 0.8 1.2 0.6 0.4 1.2 0.7 0.7 0.2 1.5 0.2 1 0 1.9-0.4 0.8-0.3 1.5-1l0.6 0.8q-0.4 0.5-1 0.8-0.4 0.4-1 0.6-0.5 0.1-1 0.2-0.6 0.1-1.1 0.1-1 0-2-0.4-0.9-0.4-1.6-1.1-0.7-0.7-1.1-1.6-0.4-1-0.3-2.1-0.1-1.1 0.3-2.1 0.4-0.9 1.1-1.6 0.7-0.8 1.6-1.1 0.9-0.4 1.9-0.4zm0 1.1q-0.7 0-1.4 0.2-0.6 0.3-1.1 0.8-0.5 0.4-0.8 1.1-0.3 0.6-0.4 1.4h7.2q-0.1-0.8-0.3-1.4-0.3-0.7-0.8-1.2-0.5-0.4-1.1-0.7-0.6-0.2-1.3-0.2zm11.7-1.1q1.1 0 2.1 0.4 1 0.4 1.7 1.2l-0.8 0.8q-0.6-0.6-1.4-0.9-0.7-0.4-1.6-0.4-0.8 0-1.5 0.3-0.7 0.3-1.2 0.9-0.6 0.5-0.9 1.3c-0.4 1-0.4 2.2 0 3.2q0.3 0.7 0.8 1.3 0.6 0.5 1.3 0.8 0.7 0.4 1.5 0.3 0.9 0.1 1.7-0.3 0.7-0.3 1.3-0.9l0.8 0.8q-0.7 0.8-1.7 1.2c-1.3 0.5-2.8 0.5-4.1 0q-1-0.4-1.7-1.1-0.7-0.7-1-1.6-0.7-2.1 0-4.2 0.3-0.9 1-1.6 0.7-0.7 1.7-1.1 1-0.4 2-0.4zm7.4 4.4h1.7l4.2-4.3h1.5l-4.8 4.8 4.9 5.3h-1.5l-4.3-4.7h-1.7v4.7h-1.2v-15.4h1.2z"/>
			<path class="s14" d="m376.6 42.2h-11v-19.8h11z"/>
			<path class="s15" d="m367.6 37.8c0.8 1.7 2 3.2 3.5 4.4-1.9 1.5-4.1 2.4-6.4 2.6-2.4 0.3-4.7-0.1-6.8-1.2-2.2-1-3.9-2.6-5.2-4.6-1.2-2-1.9-4.3-1.9-6.7 0-2.3 0.7-4.7 1.9-6.7 1.3-2 3-3.6 5.2-4.6 2.1-1 4.4-1.4 6.8-1.2 2.3 0.3 4.5 1.2 6.4 2.6-1.5 1.2-2.7 2.7-3.5 4.4-0.9 1.7-1.3 3.6-1.3 5.5 0 1.9 0.4 3.8 1.3 5.5z"/>
			<path class="s16" d="m391.4 32.3c0 2.4-0.7 4.7-1.9 6.7-1.3 2-3.1 3.6-5.2 4.6-2.1 1.1-4.5 1.5-6.8 1.2-2.3-0.2-4.6-1.1-6.4-2.6 1.5-1.2 2.7-2.7 3.5-4.4 0.8-1.7 1.3-3.6 1.3-5.5 0-1.9-0.5-3.8-1.3-5.5-0.8-1.7-2-3.2-3.5-4.4 1.8-1.4 4.1-2.3 6.4-2.6 2.3-0.2 4.7 0.2 6.8 1.2 2.1 1 3.9 2.6 5.2 4.6 1.2 2 1.9 4.4 1.9 6.7z"/>
			<path class="s16" d="m390.1 40.1v-0.4h-0.2v-0.1h0.4v0.1h-0.1v0.4zm0.8 0v-0.4l-0.2 0.4-0.2-0.3v0.3h-0.1v-0.5h0.2l0.1 0.4 0.1-0.4h0.2v0.5z"/>
		</g>
	</g>
</svg>